<?xml version="1.0" standalone="no"?>
<!DOCTYPE svg PUBLIC "-//W3C//DTD SVG 20010904//EN"
 "http://www.w3.org/TR/2001/REC-SVG-20010904/DTD/svg10.dtd">
<svg version="1.0" xmlns="http://www.w3.org/2000/svg"
 width="163.000000pt" height="163.000000pt" viewBox="0 0 163.000000 163.000000"
 preserveAspectRatio="xMidYMid meet">
<metadata>
Created by potrace 1.11, written by Peter Selinger 2001-2013
</metadata>
<g transform="translate(0.000000,163.000000) scale(0.100000,-0.100000)"
fill="#000000" stroke="none">
<path d="M30 1066 c0 -3 40 -69 89 -147 l88 -142 -60 -91 c-34 -50 -78 -117
-99 -148 l-39 -58 44 0 44 0 69 112 c38 62 72 119 75 127 3 9 32 -30 79 -108
40 -68 79 -125 86 -128 6 -2 26 -3 44 -1 l31 3 -91 144 c-50 80 -89 149 -86
155 2 6 42 72 89 146 l86 135 -31 3 c-16 2 -35 1 -41 -1 -7 -3 -43 -57 -82
-120 -53 -89 -72 -113 -82 -105 -7 6 -13 14 -13 18 0 5 -26 53 -58 107 -58 97
-58 98 -100 101 -23 2 -42 1 -42 -2z"/>
<path d="M1007 850 c-31 -17 -37 -17 -37 -5 0 11 -12 15 -49 15 l-50 0 -21
-57 c-12 -32 -33 -89 -47 -128 -30 -83 -39 -95 -48 -64 -4 13 -25 75 -47 137
l-40 112 -44 0 c-24 0 -44 -3 -44 -7 0 -4 32 -88 71 -187 67 -173 70 -182 58
-218 -19 -58 -45 -81 -85 -75 -34 6 -34 5 -34 -34 0 -21 3 -40 8 -40 65 -11
118 8 150 55 12 18 47 93 77 167 30 74 55 130 55 124 1 -5 2 -85 2 -177 l0
-168 44 0 44 0 -2 98 -3 99 30 -19 c57 -34 154 -16 200 38 22 26 23 26 34 6 6
-11 31 -30 57 -42 59 -29 148 -24 199 11 96 66 112 234 31 323 -65 71 -198 76
-269 10 -28 -26 -29 -26 -42 -6 -36 51 -133 66 -198 32z m101 -64 c69 -23 69
-200 0 -237 -29 -16 -75 -13 -105 6 -29 19 -40 64 -33 133 5 44 12 60 37 82
30 27 56 31 101 16z m335 -17 c28 -24 32 -32 35 -95 3 -64 1 -71 -25 -103 -26
-31 -34 -34 -78 -33 -42 0 -54 5 -77 31 -28 31 -32 46 -28 110 3 52 16 79 50
100 42 25 85 22 123 -10z"/>
</g>
</svg>
